<svg xmlns="http://www.w3.org/2000/svg" width="1843" height="1024">
  <path fill="#030718" d="M0 0h1843.2v1024H0V0z"/>
  <path fill="#57e1ff" d="m512.849 610.192 97.589-169.03H415.26l97.589 169.03z"/>
  <path fill="#5e47ff" d="M469.387 703.157 209.92 255.23l128.881 103.426 164.742 285.342-34.156 59.16zM712.951 431.972l-258.183 448.67 25.128-163.328 164.742-285.342h68.313zM357.817 359.465l517.65-.741-154.01 59.901H391.973l-34.157-59.16z"/>
  <path fill="#fff" d="M858.793 542.828h-66.388L757.76 702.165h71.511c51.454 0 66.726-28.327 66.907-50.678.157-19.475-10.897-27.442-21.335-30.872l.341-1.77c14.634-3.209 32.39-15.159 32.589-39.724.191-23.679-18.13-36.294-48.98-36.294zm-53.895 126.806 7.014-31.646h28.234c10.792 0 17.188 4.426 17.114 13.61-.077 9.516-7.341 18.036-22.602 18.036h-29.761zm14.036-64.178 6.566-30.097h26.054c10.792 0 16.755 4.094 16.684 12.836-.074 9.073-6.898 17.262-22.487 17.262h-26.817zM928.485 542.828 893.84 702.165h114.159l7.583-34.523h-72.735l27.062-124.814h-41.424zM1088.553 542.828l-78.119 156.018-.681 3.32h39.355l15.309-33.195h46.551l.932 33.195h37.714l.686-3.32-10.301-156.018h-51.446zm-8.602 92.725 26.849-58.092h1.741l1.495 58.092h-30.085z"/>
  <path fill="#fff" d="M1228.657 542.828h-44.8l-34.642 159.337h55.153c69.448 0 92.211-51.785 92.57-96.045.328-41.051-26.634-63.292-68.28-63.292zm-31.314 125.699 19.814-92.061h9.923c19.19 0 30.116 10.622 29.952 30.872-.246 29.543-15.104 61.189-46.94 61.189h-12.749zM1319.936 542.828l-34.642 159.337h118.825l7.014-32.531h-78.264l6.902-31.425h65.843l7.025-32.531h-65.741l6.574-30.319h76.739l7.025-32.531h-117.299zM922.681 358.4l-7.362 34.081h45.131l-27.283 125.257h40.988l27.284-125.257h45.13l7.363-34.081h-131.25zM1123.41 358.4h-64.43l-34.642 159.337h40.11l13.588-62.629h2.181l32.307 62.629h40.663l.676-3.32-32.553-59.088c39.711-3.319 54.395-26.224 54.62-53.998.215-27.441-20.04-42.932-52.521-42.932zm-39.035 67.497 7.7-34.966h25.62c12.421 0 19.466 4.98 19.395 14.717-.092 10.18-7.363 20.249-25.457 20.249h-27.259z"/>
  <path fill="#fff" d="m1224.274 358.4-78.111 156.018-.686 3.32h39.352l15.319-33.195h46.541l.932 33.195h37.724l.676-3.32L1275.73 358.4h-51.456zm-8.602 92.725 26.849-58.092h1.751l1.495 58.092h-30.095z"/>
  <path fill="#fff" d="M1364.388 358.4h-44.8l-34.652 159.337h55.163c69.437 0 92.211-51.785 92.559-96.045.338-41.051-26.624-63.292-68.27-63.292zm-31.324 125.699 19.825-92.061h9.923c19.18 0 30.106 10.622 29.942 30.872-.236 29.543-15.104 61.189-46.93 61.189h-12.759zM1455.667 358.4l-34.652 159.337h118.825l7.025-32.531h-78.275l6.902-31.425h65.843l7.025-32.531h-65.731l6.564-30.319h76.749l7.014-32.531h-117.289z"/>
</svg>
