<svg width="300" height="134" fill="none" xmlns="http://www.w3.org/2000/svg">
  <g clip-path="url(#a)">
    <g clip-path="url(#b)">
      <rect opacity=".7" x=".5" y=".5" width="175" height="103" rx="3.5" stroke="#6A54FF" stroke-dasharray="8 8"/>
      <path opacity=".7" d="M11.72 28V14.04h8.94v2h-6.68v3.88h6.06v2h-6.06V26h6.68v2h-8.94Zm16.2355-11.96V28h-2.26V16.04h-4.16v-2h10.58v2h-4.16Zm14.1429 5.88h-6.32V28h-2.26V14.04h2.26v5.88h6.32v-5.88h2.26V28h-2.26v-6.08Zm3.3174 9.1 5.54-17.82h1.88l-5.54 17.82h-1.88Zm11.2598-16.98v8.6c0 1.1867.2267 2.08.68 2.68.4534.6 1.2267.9 2.32.9 1.0934 0 1.8667-.3 2.32-.9.4534-.6.68-1.4933.68-2.68v-8.6h2.22v8.24c0 1.0267-.0933 1.9133-.28 2.66-.1866.7467-.4866 1.3667-.9 1.86-.4133.48-.9533.84-1.62 1.08-.6533.24-1.46.36-2.42.36s-1.7733-.12-2.44-.36c-.6533-.24-1.1866-.6-1.6-1.08-.4133-.4933-.7133-1.1133-.9-1.86-.1866-.7467-.28-1.6333-.28-2.66v-8.24h2.22Zm14.951 14.2c-1.1734 0-2.1734-.2133-3-.64-.8134-.4267-1.5134-1-2.1-1.72l1.56-1.46c.4933.6 1.0333 1.0533 1.62 1.36.6.3067 1.28.46 2.04.46.8933 0 1.5666-.2 2.02-.6.4533-.4.68-.94.68-1.62 0-.5467-.16-.98-.48-1.3-.32-.32-.8867-.56-1.7-.72l-1.24-.22c-1.36-.2533-2.38-.7-3.06-1.34-.68-.64-1.02-1.52-1.02-2.64 0-.6133.1133-1.1667.34-1.66.24-.5067.5666-.9267.98-1.26.4266-.3467.94-.6133 1.54-.8.6-.1867 1.2733-.28 2.02-.28 1.0533 0 1.9666.1867 2.74.56.7733.36 1.4333.8867 1.98 1.58l-1.58 1.4c-.36-.4667-.8-.84-1.32-1.12-.52-.28-1.1667-.42-1.94-.42-.8 0-1.42.16-1.86.48-.44.32-.66.7867-.66 1.4 0 .5867.18 1.0267.54 1.32.36.28.92.4933 1.68.64l1.24.26c1.4.2667 2.42.72 3.06 1.36.6533.64.98 1.52.98 2.64 0 .6533-.1134 1.2467-.34 1.78-.2267.5333-.56.9933-1 1.38-.4267.3733-.9534.6667-1.58.88-.6267.2-1.34.3-2.14.3Zm6.9731-14.2h4.94c.8933 0 1.7.1467 2.42.44.7333.2933 1.3533.7333 1.86 1.32.52.5733.92 1.3 1.2 2.18.28.8667.42 1.88.42 3.04 0 1.16-.14 2.18-.42 3.06-.28.8667-.68 1.5933-1.2 2.18-.5067.5733-1.1267 1.0067-1.86 1.3-.72.2933-1.5267.44-2.42.44h-4.94V14.04Zm4.94 11.96c1.04 0 1.88-.3267 2.52-.98.64-.6533.96-1.6133.96-2.88V19.9c0-1.2667-.32-2.2267-.96-2.88-.64-.6533-1.48-.98-2.52-.98h-2.68V26h2.68Zm12.565-9.96V28h-2.26V16.04h-4.16v-2h10.5803v2h-4.1603ZM13.757 47.156c-.7367 0-1.365-.1387-1.885-.416-.52-.286-.962-.676-1.326-1.17l.806-.676c.3207.4247.676.7497 1.066.975.39.2167.8493.325 1.378.325.65 0 1.144-.156 1.482-.468.3467-.312.52-.728.52-1.248 0-.4333-.13-.767-.39-1.001-.26-.234-.689-.4203-1.287-.559l-.741-.169c-.832-.1907-1.469-.4767-1.911-.858-.4333-.39-.65-.936-.65-1.638 0-.3987.0737-.754.221-1.066.1473-.312.351-.572.611-.78.2687-.208.585-.364.949-.468.3727-.1127.78-.169 1.222-.169.6847 0 1.2697.1257 1.755.377.494.2513.91.6197 1.248 1.105l-.819.598c-.2513-.3467-.5547-.6197-.91-.819-.3553-.1993-.7973-.299-1.326-.299-.5807 0-1.04.1257-1.378.377-.3293.2427-.494.611-.494 1.105 0 .4333.1387.7627.416.988.286.2167.715.39 1.287.52l.741.169c.8927.1993 1.5383.5027 1.937.91.3987.4073.598.949.598 1.625 0 .416-.0737.793-.221 1.131-.1387.338-.3423.624-.611.858-.2687.234-.598.416-.988.546-.3813.13-.8147.195-1.3.195Zm4.9017-9.776h1.04v4.004h.052c.1647-.3813.3943-.6847.689-.91.3033-.2253.7063-.338 1.209-.338.6933 0 1.2393.2253 1.638.676.4073.442.611 1.0703.611 1.885V47h-1.04v-4.121c0-1.2047-.507-1.807-1.521-1.807-.208 0-.4117.026-.611.078-.1907.052-.364.13-.52.234-.156.104-.2817.2383-.377.403-.0867.156-.13.3423-.13.559V47h-1.04v-9.62Zm9.9237 9.776c-.4507 0-.8624-.0823-1.235-.247-.3727-.1647-.6934-.3987-.962-.702-.26-.312-.4637-.6803-.611-1.105-.1474-.4333-.221-.9187-.221-1.456 0-.5287.0736-1.0097.221-1.443.1473-.4333.351-.8017.611-1.105.2686-.312.5893-.5503.962-.715.3726-.1647.7843-.247 1.235-.247.4506 0 .858.0823 1.222.247.3726.1647.6933.403.962.715.2686.3033.4766.6717.624 1.105.1473.4333.221.9143.221 1.443 0 .5373-.0737 1.0227-.221 1.456-.1474.4247-.3554.793-.624 1.105-.2687.3033-.5894.5373-.962.702-.364.1647-.7714.247-1.222.247Zm0-.923c.5633 0 1.0226-.1733 1.378-.52.3553-.3467.533-.8753.533-1.586v-.962c0-.7107-.1777-1.2393-.533-1.586-.3554-.3467-.8147-.52-1.378-.52-.5634 0-1.0227.1733-1.378.52-.3554.3467-.533.8753-.533 1.586v.962c0 .7107.1776 1.2393.533 1.586.3553.3467.8146.52 1.378.52Zm4.7394.767v-6.708h1.04v1.235h.065c.1213-.3207.338-.6067.65-.858.312-.2513.741-.377 1.287-.377h.403v1.04h-.611c-.5633 0-1.0053.1083-1.326.325-.312.208-.468.4723-.468.793V47h-1.04Zm6.3062 0c-.364 0-.6413-.0997-.832-.299-.182-.208-.273-.4767-.273-.806v-4.693h-1.105v-.91h.624c.2253 0 .377-.0433.455-.13.0867-.0953.13-.2557.13-.481v-1.248h.936v1.859h1.469v.91h-1.469v4.888h1.365V47h-1.3ZM15.02 90.74v-3.96h-3.68V85h3.68v-3.96h1.96V85h3.68v1.78h-3.68v3.96h-1.96ZM22.9522 92v-1.88h3.92V79.68h-.16l-3.24 3.46-1.38-1.24 3.56-3.86h3.44v12.08h3.4V92h-9.54Zm16.6122 0v-2.72h-6.48v-1.94l5.66-9.3h2.96v9.46h1.9v1.78h-1.9V92h-2.14Zm-4.56-4.5h4.56v-7.4h-.14l-4.42 7.4ZM45.3366 92v-1.88h3.92V79.68h-.16l-3.24 3.46-1.38-1.24 3.56-3.86h3.44v12.08h3.4V92h-9.54Zm13.0521 0 9.68-13.96h2.02L60.4087 92h-2.02Zm.9-6.28c-1.08 0-1.9066-.3333-2.48-1-.5733-.68-.86-1.6667-.86-2.96s.2867-2.2733.86-2.94c.5734-.68 1.4-1.02 2.48-1.02s1.9067.34 2.48 1.02c.5734.6667.86 1.6467.86 2.94s-.2866 2.28-.86 2.96c-.5733.6667-1.4 1-2.48 1Zm0-1.34c.9467 0 1.42-.6867 1.42-2.06V81.2c0-1.3733-.4733-2.06-1.42-2.06-.9466 0-1.42.6867-1.42 2.06v1.12c0 1.3733.4734 2.06 1.42 2.06Zm9.9 7.86c-1.08 0-1.9066-.3333-2.48-1-.5733-.68-.86-1.6667-.86-2.96s.2867-2.2733.86-2.94c.5734-.68 1.4-1.02 2.48-1.02s1.9067.34 2.48 1.02c.5734.6667.8601 1.6467.8601 2.94s-.2867 2.28-.8601 2.96c-.5733.6667-1.4 1-2.48 1Zm0-1.34c.9467 0 1.4201-.6867 1.4201-2.06v-1.12c0-1.3733-.4734-2.06-1.4201-2.06-.9466 0-1.42.6867-1.42 2.06v1.12c0 1.3733.4734 2.06 1.42 2.06Z" fill="#6A54FF"/>
    </g>
    <g clip-path="url(#c)">
      <rect x="124" y="30" width="176" height="104" rx="4" fill="#6A54FF"/>
      <path d="M135.72 58V44.04h8.94v2h-6.68v3.88h6.06v2h-6.06V56h6.68v2h-8.94Zm16.235-11.96V58h-2.26V46.04h-4.16v-2h10.58v2h-4.16Zm14.143 5.88h-6.32V58h-2.26V44.04h2.26v5.88h6.32v-5.88h2.26V58h-2.26v-6.08Zm3.318 9.1 5.54-17.82h1.88l-5.54 17.82h-1.88Zm11.26-16.98v8.6c0 1.1867.226 2.08.68 2.68.453.6 1.226.9 2.32.9 1.093 0 1.866-.3 2.32-.9.453-.6.68-1.4933.68-2.68v-8.6h2.22v8.24c0 1.0267-.094 1.9133-.28 2.66-.187.7467-.487 1.3667-.9 1.86-.414.48-.954.84-1.62 1.08-.654.24-1.46.36-2.42.36s-1.774-.12-2.44-.36c-.654-.24-1.187-.6-1.6-1.08-.414-.4933-.714-1.1133-.9-1.86-.187-.7467-.28-1.6333-.28-2.66v-8.24h2.22Zm14.951 14.2c-1.174 0-2.174-.2133-3-.64-.814-.4267-1.514-1-2.1-1.72l1.56-1.46c.493.6 1.033 1.0533 1.62 1.36.6.3067 1.28.46 2.04.46.893 0 1.566-.2 2.02-.6.453-.4.68-.94.68-1.62 0-.5467-.16-.98-.48-1.3-.32-.32-.887-.56-1.7-.72l-1.24-.22c-1.36-.2533-2.38-.7-3.06-1.34-.68-.64-1.02-1.52-1.02-2.64 0-.6133.113-1.1667.34-1.66.24-.5067.566-.9267.98-1.26.426-.3467.94-.6133 1.54-.8.6-.1867 1.273-.28 2.02-.28 1.053 0 1.966.1867 2.74.56.773.36 1.433.8867 1.98 1.58l-1.58 1.4c-.36-.4667-.8-.84-1.32-1.12-.52-.28-1.167-.42-1.94-.42-.8 0-1.42.16-1.86.48-.44.32-.66.7867-.66 1.4 0 .5867.18 1.0267.54 1.32.36.28.92.4933 1.68.64l1.24.26c1.4.2667 2.42.72 3.06 1.36.653.64.98 1.52.98 2.64 0 .6533-.114 1.2467-.34 1.78-.227.5333-.56.9933-1 1.38-.427.3733-.954.6667-1.58.88-.627.2-1.34.3-2.14.3Zm6.973-14.2h4.94c.893 0 1.7.1467 2.42.44.733.2933 1.353.7333 1.86 1.32.52.5733.92 1.3 1.2 2.18.28.8667.42 1.88.42 3.04 0 1.16-.14 2.18-.42 3.06-.28.8667-.68 1.5933-1.2 2.18-.507.5733-1.127 1.0067-1.86 1.3-.72.2933-1.527.44-2.42.44h-4.94V44.04ZM207.54 56c1.04 0 1.88-.3267 2.52-.98.64-.6533.96-1.6133.96-2.88V49.9c0-1.2667-.32-2.2267-.96-2.88-.64-.6533-1.48-.98-2.52-.98h-2.68V56h2.68Zm12.565-9.96V58h-2.26V46.04h-4.16v-2h10.58v2h-4.16ZM139.02 120.74v-3.96h-3.68V115h3.68v-3.96h1.96V115h3.68v1.78h-3.68v3.96h-1.96Zm7.932 1.26v-1.88h3.92v-10.44h-.16l-3.24 3.46-1.38-1.24 3.56-3.86h3.44v12.08h3.4V122h-9.54Zm11.192 0v-1.88h3.92v-10.44h-.16l-3.24 3.46-1.38-1.24 3.56-3.86h3.44v12.08h3.4V122h-9.54Zm15.473.24c-.774 0-1.467-.127-2.08-.38-.6-.253-1.114-.613-1.54-1.08-.414-.48-.734-1.053-.96-1.72-.227-.667-.34-1.42-.34-2.26 0-1.013.153-1.967.46-2.86.306-.893.7-1.713 1.18-2.46.48-.747 1.013-1.407 1.6-1.98.6-.587 1.186-1.073 1.76-1.46h3c-.787.573-1.494 1.127-2.12 1.66-.627.533-1.174 1.08-1.64 1.64-.467.56-.86 1.153-1.18 1.78-.307.627-.547 1.313-.72 2.06l.14.04c.146-.28.313-.54.5-.78.2-.253.426-.473.68-.66.266-.187.566-.333.9-.44.333-.107.72-.16 1.16-.16.586 0 1.126.1 1.62.3.506.2.94.493 1.3.88.373.373.66.827.86 1.36.213.533.32 1.127.32 1.78 0 .707-.12 1.353-.36 1.94-.227.573-.554 1.067-.98 1.48-.427.413-.947.74-1.56.98-.6.227-1.267.34-2 .34Zm0-1.84c.813 0 1.446-.213 1.9-.64.453-.44.68-1.08.68-1.92v-.28c0-.84-.227-1.473-.68-1.9-.454-.44-1.087-.66-1.9-.66-.814 0-1.447.22-1.9.66-.454.427-.68 1.06-.68 1.9v.28c0 .84.226 1.48.68 1.92.453.427 1.086.64 1.9.64Zm8.772 1.6 9.68-13.96h2.02l-9.68 13.96h-2.02Zm.9-6.28c-1.08 0-1.907-.333-2.48-1-.574-.68-.86-1.667-.86-2.96s.286-2.273.86-2.94c.573-.68 1.4-1.02 2.48-1.02s1.906.34 2.48 1.02c.573.667.86 1.647.86 2.94s-.287 2.28-.86 2.96c-.574.667-1.4 1-2.48 1Zm0-1.34c.946 0 1.42-.687 1.42-2.06v-1.12c0-1.373-.474-2.06-1.42-2.06-.947 0-1.42.687-1.42 2.06v1.12c0 1.373.473 2.06 1.42 2.06Zm9.9 7.86c-1.08 0-1.907-.333-2.48-1-.574-.68-.86-1.667-.86-2.96s.286-2.273.86-2.94c.573-.68 1.4-1.02 2.48-1.02s1.906.34 2.48 1.02c.573.667.86 1.647.86 2.94s-.287 2.28-.86 2.96c-.574.667-1.4 1-2.48 1Zm0-1.34c.946 0 1.42-.687 1.42-2.06v-1.12c0-1.373-.474-2.06-1.42-2.06-.947 0-1.42.687-1.42 2.06v1.12c0 1.373.473 2.06 1.42 2.06Z" fill="#fff"/>
      <path opacity=".6" d="M137.757 77.156c-.737 0-1.365-.1387-1.885-.416-.52-.286-.962-.676-1.326-1.17l.806-.676c.321.4247.676.7497 1.066.975.39.2167.849.325 1.378.325.65 0 1.144-.156 1.482-.468.347-.312.52-.728.52-1.248 0-.4333-.13-.767-.39-1.001-.26-.234-.689-.4203-1.287-.559l-.741-.169c-.832-.1907-1.469-.4767-1.911-.858-.433-.39-.65-.936-.65-1.638 0-.3987.074-.754.221-1.066.147-.312.351-.572.611-.78.269-.208.585-.364.949-.468.373-.1127.78-.169 1.222-.169.685 0 1.27.1257 1.755.377.494.2513.91.6197 1.248 1.105l-.819.598c-.251-.3467-.555-.6197-.91-.819-.355-.1993-.797-.299-1.326-.299-.581 0-1.04.1257-1.378.377-.329.2427-.494.611-.494 1.105 0 .4333.139.7627.416.988.286.2167.715.39 1.287.52l.741.169c.893.1993 1.538.5027 1.937.91s.598.949.598 1.625c0 .416-.074.793-.221 1.131-.139.338-.342.624-.611.858-.269.234-.598.416-.988.546-.381.13-.815.195-1.3.195Zm4.902-9.776h1.04v4.004h.052c.164-.3813.394-.6847.689-.91.303-.2253.706-.338 1.209-.338.693 0 1.239.2253 1.638.676.407.442.611 1.0703.611 1.885V77h-1.04v-4.121c0-1.2047-.507-1.807-1.521-1.807-.208 0-.412.026-.611.078-.191.052-.364.13-.52.234-.156.104-.282.2383-.377.403-.087.156-.13.3423-.13.559V77h-1.04v-9.62Zm9.923 9.776c-.45 0-.862-.0823-1.235-.247-.372-.1647-.693-.3987-.962-.702-.26-.312-.463-.6803-.611-1.105-.147-.4333-.221-.9187-.221-1.456 0-.5287.074-1.0097.221-1.443.148-.4333.351-.8017.611-1.105.269-.312.59-.5503.962-.715.373-.1647.785-.247 1.235-.247.451 0 .858.0823 1.222.247.373.1647.694.403.962.715.269.3033.477.6717.624 1.105.148.4333.221.9143.221 1.443 0 .5373-.073 1.0227-.221 1.456-.147.4247-.355.793-.624 1.105-.268.3033-.589.5373-.962.702-.364.1647-.771.247-1.222.247Zm0-.923c.564 0 1.023-.1733 1.378-.52.356-.3467.533-.8753.533-1.586v-.962c0-.7107-.177-1.2393-.533-1.586-.355-.3467-.814-.52-1.378-.52-.563 0-1.022.1733-1.378.52-.355.3467-.533.8753-.533 1.586v.962c0 .7107.178 1.2393.533 1.586.356.3467.815.52 1.378.52Zm4.74.767v-6.708h1.04v1.235h.065c.121-.3207.338-.6067.65-.858.312-.2513.741-.377 1.287-.377h.403v1.04h-.611c-.564 0-1.006.1083-1.326.325-.312.208-.468.4723-.468.793V77h-1.04Zm6.306 0c-.364 0-.641-.0997-.832-.299-.182-.208-.273-.4767-.273-.806v-4.693h-1.105v-.91h.624c.225 0 .377-.0433.455-.13.087-.0953.13-.2557.13-.481v-1.248h.936v1.859h1.469v.91h-1.469v4.888h1.365V77h-1.3Z" fill="#fff"/>
    </g>
    <path opacity=".7" d="m180 5 21 21M99 108l21 21" stroke="#6A54FF"/>
  </g>
  <defs>
    <clipPath id="a">
      <path fill="#fff" d="M0 0h300v134H0z"/>
    </clipPath>
    <clipPath id="b">
      <path fill="#fff" d="M0 0h176v104H0z"/>
    </clipPath>
    <clipPath id="c">
      <path fill="#fff" transform="translate(124 30)" d="M0 0h176v104H0z"/>
    </clipPath>
  </defs>
</svg>
