<svg width="32" height="32" fill="none" xmlns="http://www.w3.org/2000/svg">
  <g fill-rule="evenodd" clip-rule="evenodd" fill="#fff">
    <path d="M8.74035 8.74042c.36449-.36449.95544-.36449 1.31995 0L23.2596 21.9398c.3645.3644.3645.9554 0 1.3199-.3645.3645-.9554.3645-1.3199 0L8.74035 10.0604c-.36449-.36453-.36449-.95549 0-1.31998Z"/>
    <path d="M8.74036 23.2597c-.36449-.3645-.36449-.9554 0-1.3199L21.9397 8.74045c.3645-.36449.9554-.36449 1.3199 0 .3645.36449.3645.95544 0 1.31995L10.0603 23.2597c-.36449.3645-.95545.3645-1.31994 0Z"/>
  </g>
</svg>
