<svg xmlns="http://www.w3.org/2000/svg" width="1024" height="1024">
  <path fill="#e7f7f8" d="M140.8 298.664c0-16.495 13.372-29.867 29.867-29.867h682.668c16.493 0 29.866 13.372 29.866 29.867s-13.373 29.868-29.866 29.868H170.667c-16.495 0-29.867-13.373-29.867-29.868zM140.8 512c0-16.496 13.372-29.866 29.867-29.866h682.668c16.493 0 29.866 13.37 29.866 29.866 0 16.493-13.373 29.866-29.866 29.866H170.667c-16.495 0-29.867-13.373-29.867-29.866zM140.8 725.328c0-16.496 13.372-29.866 29.867-29.866h682.668c16.493 0 29.866 13.37 29.866 29.866s-13.373 29.866-29.866 29.866H170.667c-16.495 0-29.867-13.37-29.867-29.866z"/>
</svg>
