<svg xmlns="http://www.w3.org/2000/svg" width="2324" height="1024" viewBox="197 0 2127 1024"
  preserveAspectRatio="xMidYMid slice">
  <path fill="#fff"
    d="M1190.317 497.048h-103.731l-54.134 248.966h111.736c80.396 0 104.259-44.26 104.543-79.185.246-30.431-17.028-42.878-33.335-48.238l.532-2.765c22.865-5.014 50.609-23.686 50.92-62.068.299-37-28.327-56.71-76.53-56.71zm-84.212 198.134 10.961-49.445h44.115c16.863 0 26.856 6.914 26.74 21.266-.12 14.868-11.469 28.18-35.316 28.18h-46.499zm21.931-100.277 10.26-47.025h40.708c16.863 0 26.179 6.396 26.069 20.055-.114 14.176-10.778 26.971-35.135 26.971h-41.901zM1299.21 497.048l-54.132 248.966h178.373l11.849-53.943h-113.648l42.285-195.023h-64.727zM1549.308 497.048l-122.053 243.779-1.063 5.187h61.489l23.924-51.868h72.732l1.455 51.868h58.933l1.063-5.187-16.085-243.779h-80.396zm-13.434 144.884 41.952-90.768h2.725l2.334 90.768h-47.011z" />
  <path fill="#fff"
    d="M1768.235 497.048h-70.004l-54.134 248.966h86.187c108.501 0 144.071-80.914 144.63-150.071.518-64.144-41.612-98.895-106.679-98.895zm-48.939 196.405 30.972-143.846h15.5c29.978 0 47.047 16.599 46.791 48.238-.372 46.163-23.597 95.608-73.334 95.608h-19.929zM1910.855 497.048l-54.132 248.966h185.665l10.969-50.832h-122.299l10.785-49.101h102.888l10.969-50.83h-102.715l10.262-47.372h119.904l10.988-50.832h-183.284zM1290.14 208.884l-11.5 53.252h70.516l-42.632 195.714h64.045l42.63-195.714h70.518l11.5-53.252h-205.078zM1603.771 208.884h-100.665l-54.132 248.966h62.681l21.23-97.857h3.407l50.479 97.857h63.533l1.063-5.187-50.863-92.325c62.041-5.187 84.984-40.976 85.335-84.372.347-42.876-31.309-67.082-82.068-67.082zm-60.979 105.464 12.024-54.634h40.029c19.417 0 30.427 7.78 30.303 22.995-.128 15.907-11.496 31.64-39.773 31.64h-42.583z" />
  <path fill="#fff"
    d="m1761.38 208.884-122.053 243.779-1.063 5.187h61.487l23.926-51.868h72.73l1.455 51.868h58.935l1.063-5.187-16.085-243.779h-80.396zm-13.436 144.884L1789.898 263h2.725l2.332 90.768h-47.011z" />
  <path fill="#fff"
    d="M1980.298 208.884h-69.996L1856.17 457.85h86.185c108.501 0 144.065-80.914 144.636-150.071.512-64.144-41.61-98.895-106.693-98.895zm-48.93 196.405 30.97-143.846h15.498c29.972 0 47.045 16.599 46.789 48.238-.374 46.163-23.591 95.608-73.328 95.608h-19.929zM2122.929 208.884l-54.134 248.966h185.659l10.969-50.832h-122.289l10.772-49.101h102.892l10.969-50.83h-102.715l10.26-47.374h119.926l10.969-50.83h-183.276z" />
  <path fill="#57e1ff" d="m670.259 601.423 152.483-264.107H517.775l152.483 264.107z" />
  <path fill="#5e47ff"
    d="M602.35 746.685 196.933 46.798l201.376 161.604 257.41 445.846-53.368 92.438zM982.918 322.954 579.505 1024l39.264-255.199 257.41-445.848h106.738zM428.02 209.664l808.83-1.16-240.64 93.598H481.39l-53.37-92.438z" />
</svg>